<?xml version="1.0" encoding="UTF-8" standalone="no"?>
<!DOCTYPE svg PUBLIC "-//W3C//DTD SVG 20010904//EN"
              "http://www.w3.org/TR/2001/REC-SVG-20010904/DTD/svg10.dtd">

<svg xmlns="http://www.w3.org/2000/svg"
     width="3.32222in" height="2.38889in"
     viewBox="0 0 299 215">
  <path id="Selection"
        fill="#c3c3c3" stroke="none" stroke-width="1"
        d="M 129.00,0.00
           C 129.00,0.00 129.00,122.00 129.00,122.00
             128.98,132.55 125.86,135.78 121.25,145.00
             121.25,145.00 108.75,170.00 108.75,170.00
             108.75,170.00 93.75,200.00 93.75,200.00
             92.38,202.76 88.24,211.75 86.37,213.40
             84.16,215.35 80.76,214.99 78.00,215.00
             78.00,215.00 21.00,215.00 21.00,215.00
             21.00,215.00 33.75,188.00 33.75,188.00
             33.75,188.00 63.00,129.00 63.00,129.00
             63.00,129.00 0.00,129.00 0.00,129.00
             0.00,129.00 0.00,0.00 0.00,0.00
             0.00,0.00 129.00,0.00 129.00,0.00 Z
           M 299.00,0.00
           C 299.00,0.00 299.00,123.00 299.00,123.00
             298.98,133.55 295.86,136.78 291.25,146.00
             291.25,146.00 279.25,170.00 279.25,170.00
             279.25,170.00 263.25,202.00 263.25,202.00
             256.64,215.20 257.95,214.98 249.00,215.00
             249.00,215.00 192.00,215.00 192.00,215.00
             193.34,207.86 202.10,192.31 205.75,185.00
             205.75,185.00 234.00,129.00 234.00,129.00
             234.00,129.00 170.00,129.00 170.00,129.00
             170.00,129.00 170.00,0.00 170.00,0.00
             170.00,0.00 299.00,0.00 299.00,0.00 Z" />
</svg>
